 http://media.movietalkies.com/posters/bollywood/movies/2010/kites/kites-2010-7b.jpg

blackpearlworld-DeadMan
Presents
************************************************** ***********************
Kites 2010 SCAM {Team DUS}
************************************************** ***********************


Format                           : MPEG-PS
File size                        : 333 MiB
Duration                         : 1h 51mn
Overall bit rate                 : 418 Kbps

Video
ID                               : 224 (0xE0)
Format                           : MPEG Video
Format version                   : Version 2
Format profile                   : Main@Main
Format settings, Matrix          : Default
Duration                         : 1h 51mn
Bit rate mode                    : Variable
Bit rate                         : 273 Kbps
Nominal bit rate                 : 8 000 Kbps
Width                            : 352 pixels
Height                           : 288 pixels
Display aspect ratio             : 4:3
Frame rate                       : 25.000 fps
Colorimetry                      : 4:2:0
Scan type                        : Progressive
Bits/(Pixel*Frame)               : 0.108
Stream size                      : 218 MiB (65%)

Audio
ID                               : 192 (0xC0)
Format                           : MPEG Audio
Format version                   : Version 1
Format profile                   : Layer 2
Duration                         : 1h 51mn
Bit rate mode                    : Constant
Bit rate                         : 128 Kbps
Channel(s)                       : 2 channels
Sampling rate                    : 44.1 KHz
Resolution                       : 16 bits
Stream size                      : 102 MiB (31%)